M48
; DRILL file {KiCad (5.1.5-0-10_14)} date 2020 August 30, Sunday 20:07:47
; FORMAT={-:-/ absolute / inch / decimal}
; #@! TF.CreationDate,2020-08-30T20:07:47+03:00
; #@! TF.GenerationSoftware,Kicad,Pcbnew,(5.1.5-0-10_14)
; #@! TF.FileFunction,Plated,1,2,PTH
FMAT,2
INCH
T1C0.0157
T2C0.0236
T3C0.0394
T4C0.0591
T5C0.0866
%
G90
G05
T1
X5.9Y-1.76
X5.95Y-1.63
X5.95Y-1.68
X5.95Y-1.76
X6.08Y-1.47
X6.1Y-1.04
X6.19Y-1.79
X6.42Y-1.43
X6.42Y-1.51
X6.45Y-1.2
X6.54Y-2.3395
X6.56Y-1.04
X6.5612Y-1.2
X6.58Y-1.565
X6.68Y-2.16
X6.69Y-1.45
X6.6914Y-1.0917
X6.76Y-1.54
X6.76Y-1.74
X6.76Y-1.81
X6.8307Y-3.0118
X6.8393Y-1.2998
X6.9335Y-1.7079
X6.9354Y-1.6571
X6.9831Y-1.0929
X7.025Y-1.815
X7.033Y-2.34
X7.07Y-2.04
X7.075Y-1.815
X7.13Y-1.08
X7.1457Y-3.0906
X7.16Y-1.37
X7.21Y-1.08
X7.21Y-1.37
X7.21Y-1.59
X7.23Y-1.98
X7.26Y-1.37
X7.2933Y-3.7402
X7.31Y-1.37
X7.31Y-1.42
X7.34Y-1.29
X7.4803Y-3.7795
X7.52Y-1.37
X7.55Y-1.1904
X7.5787Y-1.8307
X7.628Y-1.7618
X7.628Y-1.8307
X7.65Y-1.2652
X7.79Y-1.12
X7.8248Y-2.1787
X8.01Y-1.2652
X8.01Y-1.44
X8.3563Y-2.8343
X8.75Y-4.9799
X8.7795Y-3.529
X8.9075Y-4.2236
X10.1413Y-1.2791
X10.1484Y-1.3409
T3
X5.76Y-1.04
X8.39Y-1.04
X8.69Y-1.04
X8.19Y-1.04
X5.36Y-1.04
X5.66Y-1.04
X13.7114Y-1.0417
X13.7114Y-1.6126
X13.8098Y-1.0417
X13.9083Y-1.0417
X13.9083Y-1.6126
X8.49Y-1.04
X5.96Y-1.04
X5.46Y-1.04
X5.86Y-1.04
X8.29Y-1.04
X8.59Y-1.04
X5.56Y-1.04
X5.26Y-1.04
T4
X11.0126Y-2.1744
X11.2626Y-2.0744
X2.4638Y-1.4244
X2.7138Y-1.3244
X1.3192Y-3.6744
X1.5692Y-3.5744
X10.4736Y-1.3653
X10.7236Y-1.2653
X13.0754Y-3.8619
X13.3254Y-3.7619
X1.4134Y-4.4244
X1.6634Y-4.3244
X5.0557Y-4.7878
X5.321Y-4.742
X9.9652Y-3.7657
X10.189Y-3.6159
X8.8923Y-3.227
X9.116Y-3.0772
X11.9736Y-1.4244
X12.2236Y-1.3244
X2.163Y-3.6744
X2.413Y-3.5744
X5.2116Y-4.0542
X5.4769Y-4.0084
X9.6259Y-3.0711
X9.8497Y-2.9213
X8.553Y-2.5324
X8.7767Y-2.3826
X13.9935Y-2.7369
X14.2435Y-2.6369
X9.2866Y-2.3764
X9.5103Y-2.2266
X7.2966Y-2.0327
X7.5204Y-1.8829
X4.0288Y-1.5025
X4.2941Y-1.4567
X13.8254Y-4.6119
X14.0754Y-4.5119
X3.7719Y-4.5149
X4.0372Y-4.4691
X1.7374Y-2.1744
X1.9874Y-2.0744
X1.7138Y-1.4244
X1.9638Y-1.3244
X12.3254Y-4.6119
X12.5754Y-4.5119
X8.0302Y-1.8767
X8.254Y-1.7269
X13.8254Y-1.9869
X14.0754Y-1.8869
X8.1954Y-4.9086
X8.4192Y-4.7588
X11.7626Y-2.1744
X12.0126Y-2.0744
X8.7638Y-1.7208
X8.9876Y-1.571
X7.7644Y-4.2335
X7.9882Y-4.0837
X8.498Y-4.0776
X8.7218Y-3.9278
X11.2236Y-1.4244
X11.4736Y-1.3244
X9.2316Y-3.9216
X9.4554Y-3.7718
X8.1587Y-3.3829
X8.3824Y-3.2331
X3.7444Y-3.7423
X4.0097Y-3.6965
X3.5335Y-2.9308
X3.7988Y-2.8849
X5.7344Y-3.3986
X5.9997Y-3.3527
X10.8254Y-3.6744
X11.0754Y-3.5744
X11.8566Y-3.6744
X12.1066Y-3.5744
X10.4504Y-2.9244
X10.7004Y-2.8244
X5.0007Y-3.2426
X5.2661Y-3.1968
X10.0202Y-2.2205
X10.2439Y-2.0707
X4.9733Y-2.47
X5.2386Y-2.4242
X7.4251Y-3.5389
X7.6488Y-3.3891
X12.7236Y-1.4244
X12.9736Y-1.3244
X13.6611Y-1.2369
X13.9111Y-1.1369
X3.5061Y-2.1582
X3.7714Y-2.1123
X11.9504Y-2.9244
X12.2004Y-2.8244
X9.4974Y-1.5649
X9.7212Y-1.4151
X4.7624Y-1.6584
X5.0277Y-1.6126
X7.0857Y-2.8442
X7.3095Y-2.6944
X1.6711Y-2.9244
X1.9211Y-2.8244
X5.7069Y-2.626
X5.9722Y-2.5801
X3.2138Y-1.3653
X3.4638Y-1.2653
X13.0441Y-2.4994
X13.1441Y-2.7494
X13.0754Y-4.6119
X13.3254Y-4.5119
X9.7544Y-4.5773
X9.9781Y-4.4275
X4.478Y-3.8983
X4.7433Y-3.8524
X6.2296Y-1.9703
X6.495Y-1.9245
X5.496Y-1.8144
X5.7613Y-1.7685
X2.913Y-3.6744
X3.163Y-3.5744
X4.2671Y-3.0867
X4.5325Y-3.0408
X6.1561Y-5.0217
X6.4214Y-4.9759
X7.8194Y-2.6883
X8.0431Y-2.5385
X2.7024Y-2.9244
X2.9524Y-2.8244
X11.2004Y-2.9244
X11.4504Y-2.8244
X4.2397Y-2.3141
X4.505Y-2.2683
X5.9452Y-4.2101
X6.2105Y-4.1643
X2.6748Y-2.1744
X2.9248Y-2.0744
T5
X2.2388Y-1.8994
X2.0156Y-4.5244
X4.7963Y-1.0997
X4.3291Y-4.7484
X9.0233Y-1.0997
X9.4906Y-4.7484
X13.6004Y-1.7119
X13.6004Y-4.3369
T2
G00X6.7224Y-1.0173
M15
G01X6.7224Y-0.9937
M16
G05
G00X6.7224Y-1.1917
M15
G01X6.7224Y-1.1484
M16
G05
G00X7.0626Y-1.0173
M15
G01X7.0626Y-0.9937
M16
G05
G00X7.0626Y-1.1917
M15
G01X7.0626Y-1.1484
M16
G05
T0
M30
